<svg width="43" height="43" viewBox="0 0 43 43" fill="none" xmlns="http://www.w3.org/2000/svg">
<path d="M42.6651 21.0711C42.6151 17.0057 41.4044 13.0392 39.1757 9.63886C36.947 6.23848 33.793 3.54577 30.0852 1.87785C26.3774 0.209932 22.2702 -0.363735 18.2472 0.224411C14.2243 0.812557 10.4532 2.53802 7.37809 5.1976C4.30296 7.85717 2.05184 11.3401 0.889852 15.2362C-0.272136 19.1323 -0.296603 23.2793 0.819335 27.1889C1.93527 31.0984 4.14514 34.6076 7.18868 37.3033C10.2322 39.999 13.9827 41.7688 17.9984 42.4044V27.2844H12.6651V21.0711H17.9984V16.3511C17.875 15.2536 17.994 14.1423 18.3469 13.0958C18.6999 12.0493 19.2783 11.0931 20.0412 10.2945C20.8042 9.49596 21.7331 8.8746 22.7624 8.47429C23.7917 8.07398 24.8964 7.90447 25.9984 7.97773C27.5979 8.00044 29.1935 8.14307 30.7717 8.4044V13.7377H28.1051C27.6452 13.6797 27.1782 13.7258 26.7386 13.8726C26.299 14.0193 25.8979 14.263 25.5651 14.5855C25.2323 14.9081 24.9763 15.3013 24.8158 15.7362C24.6554 16.171 24.5948 16.6363 24.6384 17.0977V21.1244H30.5584L29.5984 27.3377H24.6651V42.2711C29.7048 41.4739 34.2919 38.8968 37.5944 35.0073C40.8968 31.1177 42.6958 26.1734 42.6651 21.0711Z" fill="white"/>
</svg>
