<svg width="26" height="26" viewBox="0 0 26 26" fill="none" xmlns="http://www.w3.org/2000/svg">
<path d="M16.7657 13.9255C20.6024 13.9255 23.7126 12.9685 23.7126 11.788C23.7126 10.6075 20.6024 9.65051 16.7657 9.65051C12.9291 9.65051 9.81885 10.6075 9.81885 11.788C9.81885 12.9685 12.9291 13.9255 16.7657 13.9255Z" stroke="#71C9C6" stroke-width="1.60312"/>
<path d="M23.7126 16.5974C23.7126 17.7779 20.6024 18.7349 16.7657 18.7349C12.929 18.7349 9.81885 17.7779 9.81885 16.5974" stroke="#71C9C6" stroke-width="1.60312"/>
<path d="M23.7126 11.788V21.193C23.7126 22.4916 20.6024 23.5443 16.7657 23.5443C12.929 23.5443 9.81885 22.4916 9.81885 21.193V11.788" stroke="#71C9C6" stroke-width="1.60312"/>
<path d="M9.28452 6.44428C13.1212 6.44428 16.2314 5.48729 16.2314 4.30678C16.2314 3.12627 13.1212 2.16928 9.28452 2.16928C5.44787 2.16928 2.33765 3.12627 2.33765 4.30678C2.33765 5.48729 5.44787 6.44428 9.28452 6.44428Z" stroke="#71C9C6" stroke-width="1.60312"/>
<path d="M6.61265 11.788C4.59077 11.542 2.73299 10.9058 2.33765 9.65051M6.61265 17.1318C4.59077 16.8857 2.73299 16.2495 2.33765 14.9943" stroke="#71C9C6" stroke-width="1.60312" stroke-linecap="round"/>
<path d="M6.61265 22.4755C4.59077 22.2295 2.73299 21.5933 2.33765 20.338V4.30676" stroke="#71C9C6" stroke-width="1.60312" stroke-linecap="round"/>
<path d="M16.2314 6.44426V4.30676" stroke="#71C9C6" stroke-width="1.60312" stroke-linecap="round"/>
</svg>
