<svg width="27" height="26" viewBox="0 0 27 26" fill="none" xmlns="http://www.w3.org/2000/svg">
<path d="M13.675 20.598C8.3313 23.0027 2.98755 20.598 2.98755 20.598V4.56677C2.98755 4.56677 8.3313 6.97145 13.675 4.56677C13.675 4.56677 19.0188 2.16208 24.3625 4.56677V13.1168" stroke="#71C9C6" stroke-width="1.60312" stroke-linecap="round" stroke-linejoin="round"/>
<path d="M6.72827 13.6512V13.6613" stroke="#71C9C6" stroke-width="1.60312" stroke-linecap="round" stroke-linejoin="round"/>
<path d="M21.6551 21.8296V22.8068M21.6551 21.8296C20.7897 21.8296 20.0273 21.3978 19.58 20.7421M21.6551 21.8296C22.5205 21.8296 23.2829 21.3978 23.7302 20.7421M19.58 20.7421L18.6629 21.341M19.58 20.7421C19.3156 20.3543 19.1613 19.8882 19.1613 19.3868C19.1613 18.8854 19.3155 18.4194 19.5799 18.0316M23.7302 20.7421L24.6473 21.341M23.7302 20.7421C23.9946 20.3543 24.1489 19.8882 24.1489 19.3868C24.1489 18.8854 23.9947 18.4194 23.7303 18.0316M21.6551 16.9439C22.5206 16.9439 23.2831 17.3758 23.7303 18.0316M21.6551 16.9439C20.7896 16.9439 20.0271 17.3758 19.5799 18.0316M21.6551 16.9439V15.9668M23.7303 18.0316L24.6476 17.4325M19.5799 18.0316L18.6626 17.4325" stroke="#71C9C6" stroke-width="1.2825" stroke-linecap="round"/>
<path d="M13.586 10.5785C12.7006 10.5785 11.9829 11.1168 11.9829 11.7809C11.9829 12.4449 12.7006 12.9832 13.586 12.9832C14.4714 12.9832 15.1892 13.5215 15.1892 14.1855C15.1892 14.8496 14.4714 15.3879 13.586 15.3879M13.586 10.5785C14.284 10.5785 14.8778 10.9131 15.0979 11.3801M13.586 10.5785V9.77695M13.586 15.3879C12.888 15.3879 12.2942 15.0533 12.0741 14.5863M13.586 15.3879V16.1894" stroke="#71C9C6" stroke-width="1.20234" stroke-linecap="round"/>
</svg>
