<svg width="26" height="26" viewBox="0 0 26 26" fill="none" xmlns="http://www.w3.org/2000/svg">
<path d="M15.263 17.4501V8.90007C15.263 7.89245 15.263 7.38864 14.95 7.0756C14.637 6.76257 14.1332 6.76257 13.1255 6.76257C12.1179 6.76257 11.6141 6.76257 11.3011 7.0756C10.988 7.38864 10.988 7.89245 10.988 8.90007V17.4501C10.988 18.4577 10.988 18.9615 11.3011 19.2745C11.6141 19.5876 12.1179 19.5876 13.1255 19.5876C14.1332 19.5876 14.637 19.5876 14.95 19.2745C15.263 18.9615 15.263 18.4577 15.263 17.4501Z" stroke="#71C9C6" stroke-width="1.60312" stroke-linecap="round" stroke-linejoin="round"/>
<path d="M22.7442 9.96885V7.83135C22.7442 6.82372 22.7442 6.31991 22.4312 6.00687C22.1182 5.69385 21.6144 5.69385 20.6067 5.69385C19.5991 5.69385 19.0953 5.69385 18.7823 6.00687C18.4692 6.31991 18.4692 6.82372 18.4692 7.83135V9.96885C18.4692 10.9765 18.4692 11.4803 18.7823 11.7933C19.0953 12.1063 19.5991 12.1063 20.6067 12.1063C21.6144 12.1063 22.1182 12.1063 22.4312 11.7933C22.7442 11.4803 22.7442 10.9765 22.7442 9.96885Z" stroke="#71C9C6" stroke-width="1.60312" stroke-linecap="round" stroke-linejoin="round"/>
<path d="M7.78184 15.3126V13.1751C7.78184 12.1675 7.78184 11.6637 7.46881 11.3506C7.15577 11.0376 6.65196 11.0376 5.64434 11.0376C4.63671 11.0376 4.1329 11.0376 3.81986 11.3506C3.50684 11.6637 3.50684 12.1675 3.50684 13.1751V15.3126C3.50684 16.3202 3.50684 16.824 3.81986 17.1371C4.1329 17.4501 4.63671 17.4501 5.64434 17.4501C6.65196 17.4501 7.15577 17.4501 7.46881 17.1371C7.78184 16.824 7.78184 16.3202 7.78184 15.3126Z" stroke="#71C9C6" stroke-width="1.60312" stroke-linecap="round" stroke-linejoin="round"/>
<path d="M13.1255 22.7938V19.5876" stroke="#71C9C6" stroke-width="1.60312" stroke-linecap="round" stroke-linejoin="round"/>
<path d="M20.6067 14.2438V12.1063" stroke="#71C9C6" stroke-width="1.60312" stroke-linecap="round" stroke-linejoin="round"/>
<path d="M13.1255 6.76259V3.55634" stroke="#71C9C6" stroke-width="1.60312" stroke-linecap="round" stroke-linejoin="round"/>
<path d="M20.6067 5.69384V3.55634" stroke="#71C9C6" stroke-width="1.60312" stroke-linecap="round" stroke-linejoin="round"/>
<path d="M5.64429 19.5876V17.4501" stroke="#71C9C6" stroke-width="1.60312" stroke-linecap="round" stroke-linejoin="round"/>
<path d="M5.64429 11.0376V8.90009" stroke="#71C9C6" stroke-width="1.60312" stroke-linecap="round" stroke-linejoin="round"/>
</svg>
