<svg width="27" height="26" viewBox="0 0 27 26" fill="none" xmlns="http://www.w3.org/2000/svg">
<path d="M2.78735 20.9907C2.78735 19.7311 2.78735 19.1013 3.2569 18.7101C3.72644 18.3188 4.48217 18.3188 5.9936 18.3188C7.50504 18.3188 8.26076 18.3188 8.73031 18.7101C9.19985 19.1013 9.19985 19.7311 9.19985 20.9907C9.19985 22.2502 9.19985 22.88 8.73031 23.2713C8.26076 23.6625 7.50504 23.6625 5.9936 23.6625C4.48217 23.6625 3.72644 23.6625 3.2569 23.2713C2.78735 22.88 2.78735 22.2502 2.78735 20.9907Z" stroke="#71C9C6" stroke-width="1.60312"/>
<path d="M17.75 20.9907C17.75 19.7311 17.75 19.1013 18.2195 18.7101C18.6891 18.3188 19.4448 18.3188 20.9563 18.3188C22.4677 18.3188 23.2234 18.3188 23.693 18.7101C24.1625 19.1013 24.1625 19.7311 24.1625 20.9907C24.1625 22.2502 24.1625 22.88 23.693 23.2713C23.2234 23.6625 22.4677 23.6625 20.9563 23.6625C19.4448 23.6625 18.6891 23.6625 18.2195 23.2713C17.75 22.88 17.75 22.2502 17.75 20.9907Z" stroke="#71C9C6" stroke-width="1.60312"/>
<path d="M20.9562 18.3188C20.9562 15.6662 20.1612 15.1125 16.3523 15.1125H10.5975C6.78858 15.1125 5.99365 15.6662 5.99365 18.3188" stroke="#71C9C6" stroke-width="1.60312" stroke-linecap="round" stroke-linejoin="round"/>
<path d="M13.4749 7.09691L14.5437 5.49379M18.2843 7.09691C18.2843 9.75305 16.1311 11.9063 13.4749 11.9063C10.8188 11.9063 8.66553 9.75305 8.66553 7.09691C8.66553 4.44077 10.8188 2.28754 13.4749 2.28754C16.1311 2.28754 18.2843 4.44077 18.2843 7.09691Z" stroke="#71C9C6" stroke-width="1.60312" stroke-linecap="round"/>
</svg>
