<svg width="27" height="27" viewBox="0 0 27 27" fill="none" xmlns="http://www.w3.org/2000/svg">
<path fill-rule="evenodd" clip-rule="evenodd" d="M13.6263 2.20493C13.0494 2.20493 12.5819 2.67255 12.5819 3.24939C12.5819 3.82623 13.0494 4.29386 13.6263 4.29386C18.8179 4.29386 23.0265 8.50247 23.0265 13.6941C23.0265 14.2709 23.4941 14.7385 24.0709 14.7385C24.6478 14.7385 25.1154 14.2709 25.1154 13.6941C25.1154 7.34879 19.9716 2.20493 13.6263 2.20493ZM10.2057 5.27177C10.746 5.06985 11.0204 4.46812 10.8185 3.92777C10.6165 3.38742 10.0148 3.11307 9.47447 3.31498C9.2281 3.40704 8.98583 3.50745 8.74801 3.61586C8.22312 3.85512 7.99157 4.47457 8.23082 4.99946C8.47007 5.52435 9.08952 5.7559 9.61442 5.51665C9.80802 5.42839 10.0052 5.34668 10.2057 5.27177ZM7.13742 7.1772C7.55841 6.78285 7.58 6.12188 7.18564 5.70089C6.79129 5.2799 6.13033 5.25831 5.70934 5.65267C5.5319 5.81887 5.35985 5.99075 5.19345 6.16799C4.79865 6.58856 4.81953 7.24955 5.2401 7.64436C5.66066 8.03917 6.32165 8.01828 6.71646 7.59771C6.85224 7.45308 6.99264 7.31282 7.13742 7.1772ZM5.03533 10.1123C5.27265 9.58659 5.03884 8.96799 4.51309 8.73065C3.98733 8.49331 3.36872 8.72713 3.13139 9.25288C3.03298 9.4709 2.94127 9.69262 2.85654 9.91777C2.65338 10.4577 2.92635 11.06 3.46623 11.2632C4.00611 11.4663 4.60847 11.1934 4.81163 10.6535C4.88057 10.4703 4.95521 10.2898 5.03533 10.1123ZM4.22998 13.6C4.24791 13.0235 3.79502 12.5416 3.21846 12.5237C2.64189 12.5058 2.15997 12.9586 2.14206 13.5352C2.13462 13.7744 2.1346 14.0148 2.14206 14.254C2.16006 14.8305 2.64203 15.2833 3.2186 15.2654C3.79516 15.2473 4.24797 14.7654 4.22998 14.1888C4.22388 13.9932 4.22389 13.7962 4.22998 13.6ZM24.0041 17.8449C24.206 17.3045 23.9317 16.7028 23.3913 16.5008C22.8509 16.299 22.2492 16.5733 22.0473 17.1137C21.9669 17.3289 21.8785 17.5404 21.7827 17.7479C21.5408 18.2714 21.769 18.8921 22.2927 19.1341C22.8163 19.3761 23.437 19.1477 23.679 18.6241C23.7967 18.3693 23.9052 18.1095 24.0041 17.8449ZM4.81844 17.1511C4.61413 16.6117 4.0112 16.34 3.47175 16.5442C2.9323 16.7486 2.6606 17.3515 2.8649 17.891C2.95114 18.1187 3.04452 18.3428 3.14477 18.5632C3.38362 19.0883 4.00291 19.3203 4.52797 19.0814C5.05304 18.8426 5.28507 18.2233 5.04622 17.6983C4.96461 17.5188 4.88861 17.3364 4.81844 17.1511ZM21.6981 21.5759C22.0907 21.1532 22.0665 20.4924 21.6439 20.0998C21.2212 19.7071 20.5604 19.7314 20.1677 20.154C20.0177 20.3155 19.8619 20.4717 19.7007 20.6221C19.279 21.0156 19.256 21.6765 19.6495 22.0982C20.043 22.52 20.7039 22.5429 21.1258 22.1494C21.3233 21.965 21.5143 21.7737 21.6981 21.5759ZM6.73198 20.2053C6.33615 19.7858 5.6751 19.7665 5.25551 20.1623C4.83591 20.5581 4.81664 21.2192 5.21247 21.6388C5.3697 21.8055 5.53194 21.9674 5.69898 22.1242C6.11947 22.5191 6.78047 22.4983 7.17535 22.0778C7.57023 21.6573 7.54947 20.9963 7.12897 20.6014C6.99268 20.4735 6.86028 20.3414 6.73198 20.2053ZM18.0684 24.1868C18.5941 23.9493 18.8277 23.3306 18.5904 22.805C18.3529 22.2793 17.7342 22.0455 17.2085 22.283C17.0322 22.3625 16.8531 22.4368 16.6712 22.5053C16.1315 22.7088 15.859 23.3113 16.0625 23.8512C16.2659 24.3909 16.8685 24.6634 17.4082 24.4599C17.6318 24.3756 17.8519 24.2844 18.0684 24.1868ZM9.65414 22.2879C9.12813 22.0512 8.50978 22.2857 8.27303 22.8117C8.03629 23.3377 8.2708 23.9561 8.79681 24.1929C9.00502 24.2866 9.21659 24.3741 9.4313 24.4553C9.97082 24.6595 10.5737 24.3876 10.7778 23.8481C10.9819 23.3086 10.7101 22.7058 10.1705 22.5017C9.99582 22.4355 9.82363 22.3642 9.65414 22.2879ZM13.0992 23.088C12.5226 23.0681 12.0393 23.5193 12.0194 24.0958C11.9995 24.6723 12.4506 25.1558 13.0272 25.1757C13.2924 25.1849 13.5592 25.1849 13.8245 25.1757C14.401 25.1558 14.8522 24.6723 14.8323 24.0958C14.8124 23.5193 14.3289 23.0681 13.7525 23.088C13.5352 23.0955 13.3164 23.0955 13.0992 23.088Z" fill="#71C9C6"/>
<path d="M13.6254 6.21274C14.2157 6.21274 14.6942 6.69124 14.6942 7.28149V11.2444C15.3107 11.5137 15.8057 12.0089 16.075 12.6252H17.9004C18.4907 12.6252 18.9692 13.1037 18.9692 13.694C18.9692 14.2843 18.4907 14.7627 17.9004 14.7627H16.075C15.6627 15.7064 14.7211 16.3659 13.6254 16.3659C12.1498 16.3659 10.9536 15.1696 10.9536 13.694C10.9536 12.5983 11.6131 11.6567 12.5567 11.2444V7.28149C12.5567 6.69124 13.0353 6.21274 13.6254 6.21274Z" fill="#71C9C6"/>
</svg>
