<svg width="27" height="26" viewBox="0 0 27 26" fill="none" xmlns="http://www.w3.org/2000/svg">
<path d="M19.1143 9.98231H19.1229M19.1233 7.84095V5.16424M24.4622 7.609C24.4622 10.4373 22.0674 12.7304 19.1143 12.7304C18.7669 12.7309 18.4208 12.6987 18.0796 12.6346C17.8341 12.5884 17.7114 12.5654 17.6257 12.5785C17.5399 12.5915 17.4185 12.6562 17.1757 12.7856C16.4886 13.1513 15.6873 13.2805 14.9168 13.1371C15.2096 12.7764 15.4097 12.3438 15.4978 11.8799C15.5514 11.5963 15.4189 11.3207 15.2203 11.119C14.319 10.2026 13.7664 8.96788 13.7664 7.609C13.7664 4.78071 16.161 2.48755 19.1143 2.48755C22.0674 2.48755 24.4622 4.78071 24.4622 7.609Z" stroke="#71C9C6" stroke-width="1.60312" stroke-linecap="round" stroke-linejoin="round"/>
<path d="M8.9673 23.8625H5.9922C5.64669 23.8625 5.2997 23.8139 4.98234 23.6775C3.94928 23.2337 3.42514 22.6477 3.18088 22.281C3.04189 22.0724 3.06169 21.8067 3.21248 21.6064C4.40937 20.0166 7.18443 19.0564 8.9673 19.0563M8.97239 23.8625H11.9475C12.2931 23.8625 12.64 23.8139 12.9574 23.6775C13.9904 23.2337 14.5146 22.6477 14.7589 22.281C14.8978 22.0724 14.878 21.8067 14.7272 21.6064C13.5303 20.0166 10.7553 19.0564 8.97239 19.0563M11.9422 13.4837C11.9422 15.1203 10.6125 16.4469 8.97239 16.4469C7.33222 16.4469 6.00261 15.1203 6.00261 13.4837C6.00261 11.8471 7.33222 10.5204 8.97239 10.5204C10.6125 10.5204 11.9422 11.8471 11.9422 13.4837Z" stroke="#71C9C6" stroke-width="1.60312" stroke-linecap="round" stroke-linejoin="round"/>
</svg>
