<svg width="27" height="27" viewBox="0 0 27 27" fill="none" xmlns="http://www.w3.org/2000/svg">
<path d="M18.9146 10.0878H18.9232M18.9235 7.94642V5.26971M24.2625 7.71447C24.2625 10.5427 21.8677 12.8359 18.9146 12.8359C18.5672 12.8363 18.2211 12.8042 17.8799 12.74C17.6344 12.6939 17.5117 12.6709 17.426 12.6839C17.3402 12.697 17.2188 12.7616 16.976 12.8911C16.2889 13.2568 15.4876 13.386 14.7171 13.2426C15.0099 12.8819 15.21 12.4492 15.2981 11.9854C15.3517 11.7018 15.2192 11.4261 15.0206 11.2245C14.1193 10.3081 13.5667 9.07335 13.5667 7.71447C13.5667 4.88618 15.9613 2.59302 18.9146 2.59302C21.8677 2.59302 24.2625 4.88618 24.2625 7.71447Z" stroke="#71C9C6" stroke-width="1.60312" stroke-linecap="round" stroke-linejoin="round"/>
<path d="M8.7676 23.968H5.7925C5.44698 23.968 5.09999 23.9194 4.78263 23.783C3.74957 23.3392 3.22543 22.7532 2.98117 22.3865C2.84218 22.1779 2.86198 21.9122 3.01277 21.7119C4.20967 20.1221 6.98472 19.1618 8.7676 19.1617M8.77268 23.968H11.7478C12.0933 23.968 12.4403 23.9194 12.7577 23.783C13.7907 23.3392 14.3148 22.7532 14.5592 22.3865C14.6981 22.1779 14.6783 21.9122 14.5275 21.7119C13.3306 20.1221 10.5556 19.1618 8.77268 19.1617M11.7425 13.5892C11.7425 15.2257 10.4128 16.5524 8.77268 16.5524C7.13252 16.5524 5.80291 15.2257 5.80291 13.5892C5.80291 11.9526 7.13252 10.6259 8.77268 10.6259C10.4128 10.6259 11.7425 11.9526 11.7425 13.5892Z" stroke="#71C9C6" stroke-width="1.60312" stroke-linecap="round" stroke-linejoin="round"/>
</svg>
