<svg width="43" height="43" viewBox="0 0 43 43" fill="none" xmlns="http://www.w3.org/2000/svg">
<path d="M21.2933 10.36C19.1309 10.36 17.0171 11.0012 15.2191 12.2026C13.4211 13.404 12.0198 15.1115 11.1923 17.1093C10.3647 19.1071 10.1482 21.3055 10.5701 23.4263C10.9919 25.5472 12.0332 27.4953 13.5623 29.0244C15.0914 30.5534 17.0395 31.5947 19.1603 32.0166C21.2812 32.4384 23.4795 32.2219 25.4773 31.3944C27.4751 30.5669 29.1827 29.1655 30.3841 27.3676C31.5854 25.5696 32.2267 23.4557 32.2267 21.2933C32.2302 19.8566 31.9498 18.4333 31.4016 17.1052C30.8534 15.7771 30.0482 14.5704 29.0322 13.5545C28.0163 12.5385 26.8096 11.7333 25.4815 11.1851C24.1534 10.6369 22.7301 10.3565 21.2933 10.36ZM21.2933 28.4133C19.8851 28.4133 18.5086 27.9958 17.3377 27.2134C16.1668 26.431 15.2542 25.319 14.7153 24.018C14.1764 22.717 14.0354 21.2854 14.3101 19.9043C14.5849 18.5231 15.263 17.2545 16.2587 16.2587C17.2545 15.263 18.5231 14.5849 19.9043 14.3101C21.2854 14.0354 22.717 14.1764 24.018 14.7153C25.319 15.2542 26.431 16.1668 27.2134 17.3377C27.9958 18.5086 28.4133 19.8851 28.4133 21.2933C28.4133 23.1817 27.6632 24.9927 26.3279 26.3279C24.9927 27.6632 23.1817 28.4133 21.2933 28.4133ZM35.24 9.90667C35.24 10.4341 35.0836 10.9497 34.7906 11.3882C34.4976 11.8267 34.0811 12.1685 33.5938 12.3703C33.1066 12.5722 32.5704 12.625 32.0531 12.5221C31.5358 12.4192 31.0607 12.1652 30.6877 11.7923C30.3148 11.4193 30.0608 10.9442 29.9579 10.4269C29.855 9.90963 29.9078 9.37345 30.1097 8.88618C30.3115 8.39891 30.6533 7.98243 31.0918 7.68942C31.5303 7.3964 32.0459 7.24 32.5733 7.24C33.2806 7.24 33.9589 7.52095 34.459 8.02105C34.959 8.52115 35.24 9.19942 35.24 9.90667ZM42.4667 12.5733C42.5472 9.2577 41.3102 6.04533 39.0267 3.64C37.8421 2.4949 36.4433 1.5946 34.9104 0.9906C33.3776 0.386602 31.7407 0.0907603 30.0933 0.12C26.6267 -0.04 15.96 -0.04 12.4933 0.12C9.17921 0.0482377 5.97006 1.284 3.56 3.56C1.27651 5.96533 0.0395154 9.1777 0.12 12.4933C-0.04 15.96 -0.04 26.6267 0.12 30.0933C0.0395154 33.409 1.27651 36.6213 3.56 39.0267C5.97006 41.3027 9.17921 42.5384 12.4933 42.4667C16.0133 42.68 26.5733 42.68 30.0933 42.4667C33.409 42.5472 36.6213 41.3102 39.0267 39.0267C41.3102 36.6213 42.5472 33.409 42.4667 30.0933C42.6267 26.6267 42.6267 15.96 42.4667 12.4933V12.5733ZM37.9333 33.9067C37.5713 34.8238 37.0247 35.6569 36.3274 36.3541C35.6302 37.0513 34.7972 37.5979 33.88 37.96C29.7403 38.797 25.5082 39.0839 21.2933 38.8133C17.0874 39.0815 12.8644 38.7946 8.73333 37.96C7.81616 37.5979 6.98314 37.0513 6.2859 36.3541C5.58866 35.6569 5.04206 34.8238 4.68 33.9067C3.56 31.08 3.8 24.4133 3.8 21.32C3.8 18.2267 3.56 11.5333 4.68 8.73333C5.03185 7.80711 5.57454 6.96523 6.27283 6.26234C6.97113 5.55944 7.80944 5.01125 8.73333 4.65333C12.8644 3.81872 17.0874 3.53181 21.2933 3.8C25.5082 3.52946 29.7403 3.81638 33.88 4.65333C34.7972 5.0154 35.6302 5.56199 36.3274 6.25923C37.0247 6.95647 37.5713 7.7895 37.9333 8.70667C39.0533 11.5333 38.7867 18.2 38.7867 21.2933C38.7867 24.3867 39.0533 31.08 37.9333 33.88V33.9067Z" fill="white"/>
</svg>
