<svg width="43" height="43" viewBox="0 0 43 43" fill="none" xmlns="http://www.w3.org/2000/svg">
<path d="M39.2533 0.00382811H3.65333C3.19447 -0.0176709 2.73587 0.0515423 2.30379 0.207506C1.87171 0.36347 1.47463 0.603122 1.13529 0.912742C0.795943 1.22236 0.520998 1.59587 0.32619 2.01189C0.131382 2.4279 0.0205364 2.87825 0 3.33716V39.0172C0.0268808 39.9776 0.420413 40.8913 1.09981 41.5707C1.7792 42.2501 2.6929 42.6436 3.65333 42.6705H39.2533C40.187 42.6289 41.0673 42.2231 41.7053 41.5402C42.3434 40.8573 42.6885 39.9515 42.6667 39.0172V3.33716C42.6743 2.89051 42.5906 2.447 42.4207 2.03383C42.2509 1.62067 41.9984 1.24656 41.6788 0.93445C41.3592 0.622338 40.9792 0.378802 40.5621 0.218775C40.1451 0.0587478 39.6997 -0.0143966 39.2533 0.00382811ZM13.3333 35.5772H7.12V16.5638H13.3333V35.5772ZM10.3733 13.6838C9.93976 13.6989 9.50774 13.6242 9.10442 13.4644C8.70109 13.3045 8.33518 13.063 8.02967 12.755C7.72415 12.447 7.48563 12.0791 7.32908 11.6745C7.17254 11.2699 7.10135 10.8373 7.12 10.4038C7.10083 9.96571 7.17345 9.52841 7.3332 9.12C7.49295 8.7116 7.73631 8.34109 8.04766 8.03225C8.359 7.72341 8.73147 7.48306 9.14116 7.32663C9.55085 7.17019 9.98871 7.10111 10.4267 7.12383C10.8602 7.10872 11.2923 7.18343 11.6956 7.34328C12.0989 7.50312 12.4648 7.74464 12.7703 8.05266C13.0758 8.36068 13.3144 8.72855 13.4709 9.13316C13.6275 9.53777 13.6986 9.97039 13.68 10.4038C13.6992 10.842 13.6266 11.2792 13.4668 11.6877C13.307 12.0961 13.0637 12.4666 12.7523 12.7754C12.441 13.0842 12.0685 13.3246 11.6588 13.481C11.2492 13.6375 10.8113 13.7065 10.3733 13.6838ZM35.5733 35.5772H29.3333V25.1772C29.3333 22.6972 28.4533 20.9905 26.24 20.9905C25.5524 20.9965 24.8835 21.2149 24.3249 21.616C23.7664 22.017 23.3455 22.5809 23.12 23.2305C22.9444 23.7169 22.8717 24.2345 22.9067 24.7505V35.5772H16.7733V16.5638H22.9067V19.2305C23.452 18.2287 24.2636 17.3972 25.2518 16.8278C26.2401 16.2583 27.3665 15.9732 28.5067 16.0038C32.5333 16.0038 35.5733 18.6705 35.5733 24.3505V35.5772Z" fill="white"/>
</svg>
