<svg width="50" height="50" viewBox="0 0 50 50" fill="none" xmlns="http://www.w3.org/2000/svg">
<path fill-rule="evenodd" clip-rule="evenodd" d="M46.1813 0.265625C46.3945 0.408242 46.5693 0.601154 46.6903 0.827331C46.8112 1.05351 46.8747 1.30599 46.875 1.5625V25C46.8749 25.312 46.7814 25.6169 46.6065 25.8753C46.4317 26.1338 46.1834 26.3339 45.8937 26.45L45.3125 25L45.8937 26.45L45.8844 26.4531L45.8656 26.4625L45.7938 26.4906C45.3829 26.6539 44.9693 26.8102 44.5531 26.9594C43.7281 27.2563 42.5812 27.6562 41.2812 28.0531C38.7313 28.8406 35.4094 29.6875 32.8125 29.6875C30.1656 29.6875 27.975 28.8125 26.0688 28.0469L25.9813 28.0156C24 27.2188 22.3125 26.5625 20.3125 26.5625C18.125 26.5625 15.1938 27.2812 12.6969 28.0531C11.5789 28.4015 10.4712 28.7819 9.375 29.1938V48.4375C9.375 48.8519 9.21038 49.2493 8.91735 49.5424C8.62433 49.8354 8.2269 50 7.8125 50C7.3981 50 7.00067 49.8354 6.70765 49.5424C6.41462 49.2493 6.25 48.8519 6.25 48.4375V1.5625C6.25 1.1481 6.41462 0.750671 6.70765 0.457646C7.00067 0.16462 7.3981 0 7.8125 0C8.2269 0 8.62433 0.16462 8.91735 0.457646C9.21038 0.750671 9.375 1.1481 9.375 1.5625V2.44375C10.0812 2.19688 10.925 1.9125 11.8438 1.63125C14.3938 0.85 17.7188 0 20.3125 0C22.9375 0 25.075 0.865625 26.9406 1.62187L27.075 1.67813C29.0187 2.4625 30.7125 3.125 32.8125 3.125C35 3.125 37.9313 2.40625 40.4281 1.63437C41.851 1.19004 43.2571 0.693874 44.6437 0.146875L44.7031 0.125L44.7156 0.11875H44.7188" fill="#0A1D31"/>
</svg>
