<svg width="49" height="48" viewBox="0 0 49 48" fill="none" xmlns="http://www.w3.org/2000/svg">
<path d="M22.513 42H19.7109C12.5404 42 8.95518 42 6.72758 39.73C4.5 37.4602 4.5 33.8068 4.5 26.5C4.5 19.1932 4.5 15.5398 6.72758 13.2699C8.95518 11 12.5404 11 19.7109 11H27.3164C34.4868 11 38.0722 11 40.2998 13.2699C42.0136 15.0164 42.4088 17.5818 42.5 22" stroke="#71C9C6" stroke-width="3" stroke-linecap="round" stroke-linejoin="round"/>
<path d="M44.5 35C44.5 39.9706 40.4706 44 35.5 44C30.5294 44 26.5 39.9706 26.5 35C26.5 30.0294 30.5294 26 35.5 26C40.4706 26 44.5 30.0294 44.5 35Z" stroke="#71C9C6" stroke-width="3" stroke-linecap="round"/>
<path d="M35.5833 31.5587C34.4327 31.5587 33.5 32.2568 33.5 33.1176C33.5 33.9785 34.4327 34.6765 35.5833 34.6765C36.734 34.6765 37.6667 35.3745 37.6667 36.2353C37.6667 37.0962 36.734 37.7942 35.5833 37.7942M35.5833 31.5587C36.4904 31.5587 37.2621 31.9926 37.5481 32.598M35.5833 31.5587V30M35.5833 37.7942C34.6762 37.7942 33.9046 37.3604 33.6185 36.755M35.5833 37.7942V39.353" stroke="#71C9C6" stroke-width="1.5" stroke-linejoin="round"/>
<path d="M32.5 11L32.3014 10.3819C31.3112 7.30178 30.8162 5.76174 29.6378 4.88086C28.4592 4 26.894 4 23.7632 4H23.2368C20.1061 4 18.5407 4 17.3622 4.88086C16.1837 5.76174 15.6887 7.30178 14.6987 10.3819L14.5 11" stroke="#71C9C6" stroke-width="3" stroke-linecap="round" stroke-linejoin="round"/>
</svg>
