<svg width="49" height="48" viewBox="0 0 49 48" fill="none" xmlns="http://www.w3.org/2000/svg">
<path d="M39.9906 26C41.5724 23.7324 42.5 20.9744 42.5 18C42.5 10.268 36.232 4 28.5 4C20.768 4 14.5 10.268 14.5 18C14.5 20.1472 14.9834 22.1814 15.8473 24" stroke="#71C9C6" stroke-width="3" stroke-linecap="round" stroke-linejoin="round"/>
<path d="M28.5 12C26.2908 12 24.5 13.3431 24.5 15C24.5 16.6569 26.2908 18 28.5 18C30.7092 18 32.5 19.3431 32.5 21C32.5 22.6568 30.7092 24 28.5 24M28.5 12C30.2416 12 31.7232 12.8348 32.2724 14M28.5 12V10M28.5 24C26.7584 24 25.2768 23.1652 24.7276 22M28.5 24V26" stroke="#71C9C6" stroke-width="3" stroke-linecap="round"/>
<path d="M6.5 28H11.4725C12.1466 28 12.8097 28.1704 13.4003 28.4952L17.5 30.7502H19.5C22.5 30.7502 24.5 33.048 24.5 34.9996L19.1325 36.7888C18.7219 36.9256 18.2781 36.9256 17.8675 36.7888L12.5 34.9996M24.4986 34L32.9206 31.1926C34.9298 30.523 37.1128 31.5354 37.8994 33.5018C38.238 34.3486 37.8712 35.3138 37.0554 35.7216L21.885 43.3068C20.993 43.7528 19.9667 43.8496 19.0072 43.578L6.5 40.0398" stroke="#71C9C6" stroke-width="3" stroke-linecap="round" stroke-linejoin="round"/>
</svg>
