<svg width="49" height="48" viewBox="0 0 49 48" fill="none" xmlns="http://www.w3.org/2000/svg">
<path d="M17.5 24C19.1569 24 20.5 22.6569 20.5 21C20.5 19.3431 19.1569 18 17.5 18C15.8431 18 14.5 19.3431 14.5 21C14.5 22.6569 15.8431 24 17.5 24Z" stroke="#71C9C6" stroke-width="3" stroke-linejoin="round"/>
<path d="M29.5 34C31.1569 34 32.5 32.6569 32.5 31C32.5 29.3431 31.1569 28 29.5 28C27.8431 28 26.5 29.3431 26.5 31C26.5 32.6569 27.8431 34 29.5 34Z" stroke="#71C9C6" stroke-width="3" stroke-linejoin="round"/>
<path d="M37.5 18C39.1569 18 40.5 16.6569 40.5 15C40.5 13.3431 39.1569 12 37.5 12C35.8431 12 34.5 13.3431 34.5 15C34.5 16.6569 35.8431 18 37.5 18Z" stroke="#71C9C6" stroke-width="3" stroke-linejoin="round"/>
<path d="M31.3682 28.5926L36.5 18M19.665 23.1368L26.9076 28.5926M5.5 41L15.6791 23.7584" stroke="#71C9C6" stroke-width="3" stroke-linejoin="round"/>
<path d="M40.5 42H4.5V6" stroke="#71C9C6" stroke-width="3" stroke-linejoin="round"/>
</svg>
