<svg width="19" height="19" viewBox="0 0 19 19" fill="none" xmlns="http://www.w3.org/2000/svg">
<path d="M9.8999 4.95947C13.2136 4.95947 15.8999 4.2879 15.8999 3.45947C15.8999 2.63105 13.2136 1.95947 9.8999 1.95947C6.58619 1.95947 3.8999 2.63105 3.8999 3.45947C3.8999 4.2879 6.58619 4.95947 9.8999 4.95947Z" stroke="white" stroke-width="1.125" stroke-linejoin="round"/>
<path d="M9.8999 9.83447C10.5212 9.83447 11.0249 9.33077 11.0249 8.70947C11.0249 7.95947 9.8999 6.83447 9.8999 6.83447C9.8999 6.83447 8.7749 7.95947 8.7749 8.70947C8.7749 9.33077 9.2786 9.83447 9.8999 9.83447Z" stroke="white" stroke-width="1.125" stroke-linecap="round" stroke-linejoin="round"/>
<path d="M15.1499 4.20947V8.36935C15.6278 8.6923 15.8999 9.064 15.8999 9.45947C15.8999 10.7021 13.2136 11.7095 9.8999 11.7095C6.58619 11.7095 3.8999 10.7021 3.8999 9.45947C3.8999 9.064 4.17203 8.6923 4.6499 8.36935V4.20947" stroke="white" stroke-width="1.125" stroke-linecap="round" stroke-linejoin="round"/>
<path d="M15.1499 10.5845V13.6193C15.6278 13.9423 15.8999 14.314 15.8999 14.7095C15.8999 15.9521 13.2136 16.9595 9.8999 16.9595C6.58619 16.9595 3.8999 15.9521 3.8999 14.7095C3.8999 14.314 4.17203 13.9423 4.6499 13.6193V10.5845" stroke="white" stroke-width="1.125" stroke-linecap="round" stroke-linejoin="round"/>
</svg>
