<svg width="19" height="19" viewBox="0 0 19 19" fill="none" xmlns="http://www.w3.org/2000/svg">
<path d="M12.5 7.95947L14.1121 8.44307C15.142 8.75207 15.6569 8.90657 15.9535 9.30512C16.25 9.70367 16.25 10.2413 16.25 11.3165V16.9595" stroke="white" stroke-width="1.125" stroke-linejoin="round"/>
<path d="M6.5 7.20947H8.75M6.5 10.2095H8.75" stroke="white" stroke-width="1.125" stroke-linecap="round" stroke-linejoin="round"/>
<path d="M9.5 16.9595V14.7095C9.5 14.0024 9.5 13.6488 9.28032 13.4291C9.06065 13.2095 8.7071 13.2095 8 13.2095H7.25C6.54289 13.2095 6.18934 13.2095 5.96967 13.4291C5.75 13.6488 5.75 14.0024 5.75 14.7095V16.9595" stroke="white" stroke-width="1.125" stroke-linejoin="round"/>
<path d="M2 16.9595H17" stroke="white" stroke-width="1.125" stroke-linecap="round"/>
<path d="M2.75 16.9595V5.4974C2.75 3.61434 2.75 2.67281 3.34338 2.20565C3.93678 1.7385 4.81057 1.99214 6.55814 2.4994L10.3081 3.58789C11.3627 3.894 11.89 4.04705 12.195 4.46421C12.5 4.88138 12.5 5.44955 12.5 6.5859V16.9595" stroke="white" stroke-width="1.125" stroke-linecap="round" stroke-linejoin="round"/>
</svg>
