<svg width="19" height="19" viewBox="0 0 19 19" fill="none" xmlns="http://www.w3.org/2000/svg">
<path d="M15.7002 11.7095V4.95947C15.7002 3.30262 14.357 1.95947 12.7002 1.95947H6.7002C5.04334 1.95947 3.7002 3.30262 3.7002 4.95947V11.7095C3.7002 13.3663 5.04334 14.7095 6.7002 14.7095H12.7002C14.357 14.7095 15.7002 13.3663 15.7002 11.7095Z" stroke="white" stroke-width="1.125" stroke-linejoin="round"/>
<path d="M3.7002 9.45947C5.50969 9.95072 7.4502 10.2095 9.3252 10.2095C11.2002 10.2095 13.8764 9.89462 15.7002 9.45947" stroke="white" stroke-width="1.125" stroke-linecap="round" stroke-linejoin="round"/>
<path d="M5.9502 14.7095L4.4502 16.9595M13.4502 14.7095L14.9502 16.9595" stroke="white" stroke-width="1.125" stroke-linecap="round" stroke-linejoin="round"/>
<path d="M5.5752 12.647C5.88585 12.647 6.1377 12.3951 6.1377 12.0845C6.1377 11.7738 5.88585 11.522 5.5752 11.522V12.647ZM13.8252 11.522C13.5145 11.522 13.2627 11.7738 13.2627 12.0845C13.2627 12.3951 13.5145 12.647 13.8252 12.647V11.522ZM3.7002 12.647H5.5752V11.522H3.7002V12.647ZM13.8252 12.647H15.7002V11.522H13.8252V12.647Z" fill="white"/>
</svg>
