<svg width="19" height="19" viewBox="0 0 19 19" fill="none" xmlns="http://www.w3.org/2000/svg">
<path d="M7.25 1.95947H2.75C2.33579 1.95947 2 2.29526 2 2.70947V7.20947C2 7.62369 2.33579 7.95947 2.75 7.95947H7.25C7.66422 7.95947 8 7.62369 8 7.20947V2.70947C8 2.29526 7.66422 1.95947 7.25 1.95947Z" stroke="white" stroke-width="1.125" stroke-linejoin="round"/>
<path d="M16.25 1.95947H11.75C11.3358 1.95947 11 2.29526 11 2.70947V7.20947C11 7.62369 11.3358 7.95947 11.75 7.95947H16.25C16.6642 7.95947 17 7.62369 17 7.20947V2.70947C17 2.29526 16.6642 1.95947 16.25 1.95947Z" stroke="white" stroke-width="1.125" stroke-linejoin="round"/>
<path d="M7.25 10.9595H2.75C2.33579 10.9595 2 11.2952 2 11.7095V16.2095C2 16.6237 2.33579 16.9595 2.75 16.9595H7.25C7.66422 16.9595 8 16.6237 8 16.2095V11.7095C8 11.2952 7.66422 10.9595 7.25 10.9595Z" stroke="white" stroke-width="1.125" stroke-linejoin="round"/>
<path d="M16.25 10.9595H11.75C11.3358 10.9595 11 11.2952 11 11.7095V16.2095C11 16.6237 11.3358 16.9595 11.75 16.9595H16.25C16.6642 16.9595 17 16.6237 17 16.2095V11.7095C17 11.2952 16.6642 10.9595 16.25 10.9595Z" stroke="white" stroke-width="1.125" stroke-linejoin="round"/>
</svg>
