<svg width="19" height="19" viewBox="0 0 19 19" fill="none" xmlns="http://www.w3.org/2000/svg">
<path d="M1.6001 16.3544C2.11403 17.1427 2.77838 17.1427 3.30484 16.3544C4.99749 13.7651 6.60975 18.2168 7.80485 16.3835C9.62735 13.6365 10.9382 18.4008 12.3048 16.3544C14.087 13.6281 15.1972 18.1427 16.6001 16.6476" stroke="white" stroke-width="1.125" stroke-linecap="round" stroke-linejoin="round"/>
<path d="M2.77887 13.2095L1.6001 8.70947H16.6001C16.6001 8.70947 16.6001 13.2095 13.5971 13.2095" stroke="white" stroke-width="1.125" stroke-linecap="round" stroke-linejoin="round"/>
<path d="M13.6001 8.70944L10.8954 5.7042C10.4688 5.23008 9.8609 4.95935 9.22302 4.95935H5.3501C4.93589 4.95935 4.6001 5.29513 4.6001 5.70935V8.70944" stroke="white" stroke-width="1.125" stroke-linecap="round" stroke-linejoin="round"/>
<path d="M7.6001 4.95947V2.70947C7.6001 2.29526 7.26431 1.95947 6.8501 1.95947H5.3501" stroke="white" stroke-width="1.125" stroke-linecap="round" stroke-linejoin="round"/>
</svg>
