<svg width="43" height="43" viewBox="0 0 43 43" fill="none" xmlns="http://www.w3.org/2000/svg">
<path d="M36.2667 6.1868C34.3118 4.21726 31.9849 2.65604 29.4212 1.59395C26.8576 0.531854 24.1083 -0.00991956 21.3333 0.00013749C17.6236 0.00375743 13.9799 0.981992 10.7672 2.83687C7.55452 4.69176 4.88554 7.35818 3.02757 10.5691C1.16961 13.78 0.18788 17.4228 0.180701 21.1325C0.173522 24.8422 1.14114 28.4887 2.98667 31.7068L0 42.6668L11.2 39.7335C14.2914 41.4573 17.7673 42.3744 21.3067 42.4001C26.9324 42.4004 32.3305 40.1784 36.326 36.2179C40.3214 32.2574 42.5908 26.879 42.64 21.2535C42.6212 18.4463 42.0486 15.6704 40.9549 13.085C39.8613 10.4995 38.2681 8.15533 36.2667 6.1868ZM21.3333 38.7468C18.1808 38.7462 15.0864 37.8989 12.3733 36.2935L11.7333 35.8935L5.09333 37.6535L6.85333 31.1735L6.42667 30.5068C4.158 26.8446 3.31131 22.4775 4.04699 18.2327C4.78268 13.988 7.04963 10.1606 10.4184 7.47541C13.7872 4.79024 18.0238 3.43389 22.3257 3.6633C26.6276 3.8927 30.6959 5.69193 33.76 8.72014C37.1093 11.9953 39.0267 16.4627 39.0933 21.1468C39.0511 25.8293 37.1614 30.3056 33.8353 33.6017C30.5092 36.8978 26.016 38.747 21.3333 38.7468ZM30.96 25.5735C30.4267 25.3068 27.84 24.0268 27.36 23.8668C26.88 23.7068 26.5067 23.6001 26.16 24.1335C25.6383 24.8484 25.0774 25.5339 24.48 26.1868C24.1867 26.5601 23.8667 26.5868 23.3333 26.1868C20.2926 24.9851 17.7592 22.7719 16.16 19.9201C15.6 18.9868 16.6933 19.0401 17.7067 17.0401C17.7815 16.896 17.8205 16.7359 17.8205 16.5735C17.8205 16.411 17.7815 16.251 17.7067 16.1068C17.7067 15.8401 16.5067 13.2268 16.08 12.1868C15.6533 11.1468 15.2267 11.3068 14.88 11.2801H13.84C13.5702 11.2825 13.3042 11.3434 13.0602 11.4585C12.8162 11.5735 12.6001 11.7402 12.4267 11.9468C11.8297 12.5297 11.364 13.2331 11.0605 14.0103C10.757 14.7874 10.6227 15.6203 10.6667 16.4535C10.8307 18.4491 11.5824 20.3513 12.8267 21.9201C15.1001 25.3214 18.2142 28.0772 21.8667 29.9201C23.7826 31.0386 26.0093 31.5064 28.2133 31.2535C28.9473 31.1078 29.6423 30.8094 30.2534 30.3775C30.8644 29.9456 31.3777 29.39 31.76 28.7468C32.1173 27.9627 32.2289 27.0888 32.08 26.2401C31.84 25.9735 31.4933 25.8401 30.96 25.5735Z" fill="#FBFBFB"/>
</svg>
