<svg width="43" height="30" viewBox="0 0 43 30" fill="none" xmlns="http://www.w3.org/2000/svg">
<path d="M41.7878 4.70332C41.5506 3.78941 41.0751 2.95483 40.4099 2.28485C39.7446 1.61488 38.9133 1.13353 38.0011 0.889984C32.4706 0.234384 26.9032 -0.0595743 21.3345 0.00998406C15.7657 -0.0595743 10.1983 0.234384 4.66779 0.889984C3.75556 1.13353 2.92434 1.61488 2.25905 2.28485C1.59376 2.95483 1.11826 3.78941 0.881118 4.70332C0.275718 8.10057 -0.0188335 11.5459 0.0011182 14.9967C-0.0205952 18.4651 0.273957 21.9283 0.881118 25.3433C1.13054 26.2425 1.61151 27.0605 2.27598 27.7156C2.94046 28.3707 3.76518 28.84 4.66779 29.0767C10.1983 29.7323 15.7657 30.0262 21.3345 29.9567C26.9032 30.0262 32.4706 29.7323 38.0011 29.0767C38.9037 28.84 39.7284 28.3707 40.3929 27.7156C41.0574 27.0605 41.5384 26.2425 41.7878 25.3433C42.3949 21.9283 42.6895 18.4651 42.6678 14.9967C42.6877 11.5459 42.3932 8.10057 41.7878 4.70332ZM16.9611 21.37V8.67665L28.1345 14.9967L16.9611 21.3433V21.37Z" fill="white"/>
</svg>
